<?xml version="1.0" encoding="UTF-8" standalone="no"?>
<!-- Created with Inkscape (http://www.inkscape.org/) -->

<svg
   version="1.1"
   id="svg1"
   width="180"
   height="60"
   viewBox="0 0 180 60"
   sodipodi:docname="Logo.svg"
   inkscape:version="1.3.2 (091e20e, 2023-11-25, custom)"
   inkscape:export-filename="v001.png"
   inkscape:export-xdpi="11.25"
   inkscape:export-ydpi="11.25"
   xml:space="preserve"
   xmlns:inkscape="http://www.inkscape.org/namespaces/inkscape"
   xmlns:sodipodi="http://sodipodi.sourceforge.net/DTD/sodipodi-0.dtd"
   xmlns="http://www.w3.org/2000/svg"
   xmlns:svg="http://www.w3.org/2000/svg"><defs
     id="defs1" /><sodipodi:namedview
     id="namedview1"
     pagecolor="#ffffff"
     bordercolor="#000000"
     borderopacity="0.25"
     inkscape:showpageshadow="2"
     inkscape:pageopacity="0.0"
     inkscape:pagecheckerboard="true"
     inkscape:deskcolor="#d1d1d1"
     inkscape:zoom="3.0195312"
     inkscape:cx="125.01941"
     inkscape:cy="17.386805"
     inkscape:window-width="1920"
     inkscape:window-height="1009"
     inkscape:window-x="-8"
     inkscape:window-y="-8"
     inkscape:window-maximized="1"
     inkscape:current-layer="g1"
     showguides="true" /><g
     inkscape:groupmode="layer"
     id="layer1"
     inkscape:label="Flechas"
     style="fill:#008000" /><g
     inkscape:groupmode="layer"
     id="layer2"
     inkscape:label="Engranaje" /><text
     xml:space="preserve"
     style="font-size:26.5959px;opacity:0.9;fill:#000080;stroke-width:0.13852"
     x="1.1823666"
     y="19.238281"
     id="text1"
     transform="scale(0.67297164,1.4859467)"><tspan
       sodipodi:role="line"
       x="1.1823666"
       y="19.238281"
       style="font-style:normal;font-variant:normal;font-weight:normal;font-stretch:normal;font-size:26.5959px;font-family:Cambria;-inkscape-font-specification:Cambria;stroke-width:0.13852"
       id="tspan1">Gerencia de</tspan></text><text
     xml:space="preserve"
     style="font-size:26.5959px;opacity:0.9;fill:#000080;stroke-width:0.13852"
     x="1.4265255"
     y="39.445488"
     id="text1-9"
     transform="scale(0.67297164,1.4859467)"><tspan
       sodipodi:role="line"
       x="1.4265255"
       y="39.445488"
       style="font-style:normal;font-variant:normal;font-weight:normal;font-stretch:normal;font-size:26.5959px;font-family:Cambria;-inkscape-font-specification:Cambria;stroke-width:0.13852"
       id="tspan1-0">Mantenimiento</tspan></text><text
     xml:space="preserve"
     style="font-style:normal;font-variant:normal;font-weight:normal;font-stretch:normal;font-size:26.342px;line-height:0;font-family:Cambria;-inkscape-font-specification:Cambria;opacity:0.9;fill:#000080;stroke-width:0.137197"
     x="0.35650119"
     y="45.233055"
     id="text3"
     transform="scale(0.85444612,1.1703488)"><tspan
       sodipodi:role="line"
       id="tspan3"
       x="0.35650119"
       y="45.233055"
       style="stroke-width:0.137197" /></text><g
     style="fill:#008000"
     id="g1"
     transform="matrix(0.06998869,0,0,0.06998869,115.76637,69.903172)"><path
       d="m 61.297148,-198.63035 v -117.84381 c 0,-23.14789 5.962336,-44.89287 17.887006,-65.23495 11.924667,-20.34209 28.408776,-35.77402 49.452306,-46.29579 35.77403,-18.23772 76.10747,-33.66966 121.00034,-46.29578 44.89288,-12.62612 94.3452,-18.93917 148.35694,-18.93917 54.01174,0 103.46405,6.31305 148.35693,18.93917 44.89287,12.62612 85.22632,28.05806 121.00033,46.29578 21.04354,10.52177 37.52764,25.9537 49.45231,46.29579 11.92467,20.34208 17.88701,42.08706 17.88701,65.23495 v 117.84381 z M 145.4713,-282.8045 h 505.04487 v -33.66966 c 0,-7.71595 -1.92899,-14.73047 -5.78698,-21.04352 -3.85798,-6.31307 -8.9435,-11.22324 -15.25655,-14.73049 -25.25225,-12.62612 -57.69436,-25.25224 -97.32636,-37.87836 -39.63199,-12.62612 -84.34951,-18.93918 -134.15254,-18.93918 -49.80304,0 -94.52055,6.31306 -134.15255,18.93918 -39.63199,12.62612 -72.07411,25.25224 -97.32635,37.87836 -6.31306,3.50725 -11.39859,8.41742 -15.25657,14.73049 -3.85798,6.31305 -5.78697,13.32757 -5.78697,21.04352 z m 252.52244,-252.52243 c -46.29578,0 -85.92778,-16.48411 -118.89598,-49.45231 -32.96821,-32.96821 -49.45231,-72.6002 -49.45231,-118.89598 h -10.52177 c -6.31306,0 -11.39858,-1.92899 -15.25656,-5.78697 -3.85799,-3.85799 -5.78698,-8.94351 -5.78698,-15.25656 0,-6.31307 1.92899,-11.39859 5.78698,-15.25657 3.85798,-3.85799 8.9435,-5.78697 15.25656,-5.78697 h 10.52177 c 0,-31.5653 7.71596,-59.97408 23.14789,-85.22632 15.43192,-25.25225 35.77401,-45.24361 61.02625,-59.97408 v 39.98271 c 0,6.31307 1.92899,11.39859 5.78697,15.25657 3.85799,3.85799 8.9435,5.78697 15.25657,5.78697 6.31306,0 11.39858,-1.92898 15.25656,-5.78697 3.85798,-3.85798 5.78697,-8.9435 5.78697,-15.25657 v -56.81754 c 6.31307,-2.10435 12.97685,-3.68262 19.99137,-4.7348 7.0145,-1.05218 14.37974,-1.57826 22.09571,-1.57826 7.71595,0 15.08119,0.52608 22.09571,1.57826 7.01451,1.05218 13.6783,2.63045 19.99135,4.7348 v 56.81754 c 0,6.31307 1.929,11.39859 5.78699,15.25657 3.85798,3.85799 8.9435,5.78697 15.25655,5.78697 6.31306,0 11.39859,-1.92898 15.25657,-5.78697 3.85799,-3.85798 5.78697,-8.9435 5.78697,-15.25657 v -39.98271 c 25.25225,14.73047 45.59433,34.72183 61.02626,59.97408 15.43192,25.25224 23.14789,53.66102 23.14789,85.22632 h 10.52177 c 6.31305,0 11.39857,1.92898 15.25656,5.78697 3.85798,3.85798 5.78697,8.9435 5.78697,15.25657 0,6.31305 -1.92899,11.39857 -5.78697,15.25656 -3.85799,3.85798 -8.94351,5.78697 -15.25656,5.78697 h -10.52177 c 0,46.29578 -16.48411,85.92777 -49.45232,118.89598 -32.9682,32.9682 -72.60019,49.45231 -118.89597,49.45231 z m 0,-84.17415 c 23.14789,0 42.96388,-8.24205 59.44799,-24.72615 16.4841,-16.4841 24.72615,-36.3001 24.72615,-59.44799 H 313.81959 c 0,23.14789 8.24205,42.96389 24.72616,59.44799 16.4841,16.4841 36.3001,24.72615 59.44799,24.72615 z"
       id="path1"
       style="display:inline;fill:#008000;stroke-width:1.05218"
       sodipodi:nodetypes="csscssscssccccsscssscsscsscssssscscssssscssscssssscscssssscssssccss" /><path
       d="m 765.73484,-847.89323 q -10.91762,9.09802 -22.74504,8.31818 -11.82743,-0.77983 -20.66551,-8.05824 -8.83807,-7.27842 -12.08737,-19.10585 -3.24929,-11.82742 4.28907,-24.3047 l 19.49576,-32.23299 q -6.49859,-5.71875 -10.26777,-13.777 -3.76918,-8.05825 -3.76918,-17.41621 0,-17.15627 12.21734,-29.37361 12.21735,-12.21734 29.37362,-12.21734 17.15626,0 29.3736,12.21734 12.21734,12.21734 12.21734,29.37361 0,17.15627 -12.21734,29.37361 -12.21734,12.21734 -29.3736,12.21734 -2.3395,0 -4.67899,-0.25995 -2.33949,-0.25994 -4.41903,-0.77983 l -20.01565,33.79265 q -2.85938,4.67899 -1.8196,9.228 1.03977,4.54901 4.41903,7.40838 3.37927,2.85938 8.05825,3.24929 4.67898,0.38992 9.09802,-3.24929 l 109.17624,-93.83958 q 10.91762,-9.09802 22.87502,-8.18821 11.9574,0.9098 20.79547,8.18821 8.83808,7.27842 11.95741,19.10585 3.11931,11.82742 -4.41904,24.3047 l -19.49577,32.23299 q 6.49859,5.71875 10.26778,13.777 3.76918,8.05825 3.76918,17.41621 0,17.15627 -12.21735,29.37361 -12.21734,12.21734 -29.37361,12.21734 -17.15626,0 -29.3736,-12.21734 -12.21735,-12.21734 -12.21735,-29.37361 0,-17.15627 12.21735,-29.3736 12.21734,-12.21735 29.3736,-12.21735 2.3395,0 4.54901,0.25995 2.20952,0.25994 4.28907,0.77983 l 20.27559,-33.79265 q 2.85937,-4.67898 1.8196,-9.22799 -1.03977,-4.54901 -4.41904,-7.40839 -3.37926,-2.85938 -8.05825,-3.24929 -4.67898,-0.38992 -9.09802,3.24929 z m 99.81828,18.19604 q 8.57814,0 14.68681,-6.10868 6.10867,-6.10867 6.10867,-14.6868 0,-8.57813 -6.10867,-14.6868 -6.10867,-6.10868 -14.68681,-6.10868 -8.57813,0 -14.6868,6.10868 -6.10867,6.10867 -6.10867,14.6868 0,8.57813 6.10867,14.6868 6.10867,6.10868 14.6868,6.10868 z M 761.57576,-933.67456 q 8.57812,0 14.6868,-6.10868 6.10867,-6.10867 6.10867,-14.6868 0,-8.57814 -6.10867,-14.6868 -6.10868,-6.10867 -14.6868,-6.10867 -8.57814,0 -14.68681,6.10867 -6.10867,6.10866 -6.10867,14.6868 0,8.57813 6.10867,14.6868 6.10867,6.10868 14.68681,6.10868 z m 103.97736,83.18189 z M 761.57576,-954.47004 Z"
       id="path1-7"
       style="fill:#000080;stroke-width:0.259944" /><path
       d="m 664.44274,-620.79764 -6.11344,-30.56717 c -4.07562,-1.35855 -7.98142,-2.88691 -11.71741,-4.58508 -3.73599,-1.69817 -7.30217,-4.24544 -10.69852,-7.64179 l -28.52936,10.18905 -20.37812,-36.68061 22.41593,-20.37811 v -24.45374 l -22.41593,-20.37812 20.37812,-36.68061 28.52936,10.18906 c 2.71709,-2.71709 6.11344,-5.09454 10.18906,-7.13235 4.07563,-2.03781 8.15125,-3.73598 12.22687,-5.09452 l 6.11344,-30.56718 h 40.75623 l 6.11344,30.56718 c 4.07562,1.35854 8.15124,3.05671 12.22687,5.09452 4.07562,2.03781 7.47197,4.41526 10.18906,7.13235 l 28.52936,-10.18906 20.37812,36.68061 -22.41593,20.37812 v 24.45374 l 22.41593,20.37811 -20.37812,36.68061 -28.52936,-10.18905 c -3.39635,3.39635 -6.96252,5.94362 -10.69851,7.64179 -3.73599,1.69817 -7.6418,3.22653 -11.71742,4.58508 l -6.11344,30.56717 z m 20.37812,-71.32341 c 8.15125,0 15.28359,-3.05672 21.39702,-9.17015 6.11343,-6.11343 9.17015,-13.24577 9.17015,-21.39702 0,-8.15125 -3.05672,-15.28359 -9.17015,-21.39703 -6.11343,-6.11343 -13.24577,-9.17015 -21.39702,-9.17015 -8.15125,0 -15.28359,3.05672 -21.39703,9.17015 -6.11343,6.11344 -9.17015,13.24578 -9.17015,21.39703 0,8.15125 3.05672,15.28359 9.17015,21.39702 6.11344,6.11343 13.24578,9.17015 21.39703,9.17015 z"
       id="path2"
       style="display:inline;fill:#000080;stroke-width:1.01891"
       sodipodi:nodetypes="ccsccccccccsccccsccccccccscccsssssssss"
       inkscape:label="Mec" /><g
       style="fill:#000080"
       id="g3"
       transform="matrix(0.26552063,0,0,0.26552063,705.4956,-469.48913)"><path
         d="M 422,-232 629,-480 H 469 l 29,-227 -185,267 H 452 Z M 320,-80 360,-360 H 160 l 360,-520 h 80 l -40,320 H 800 L 400,-80 Z m 151,-390 z"
         id="path1-5"
         style="fill:#000080" /></g></g><g
     style="fill:#000080"
     id="g2"
     transform="matrix(0.025,0,0,0.025,107.13792,22.018111)" /></svg>
